<?xml version="1.0" standalone="no"?>
<!DOCTYPE svg PUBLIC "-//W3C//DTD SVG 20010904//EN"
 "http://www.w3.org/TR/2001/REC-SVG-20010904/DTD/svg10.dtd">
<svg version="1.0" xmlns="http://www.w3.org/2000/svg"
 width="500.000000pt" height="500.000000pt" viewBox="0 0 500.000000 500.000000"
 preserveAspectRatio="xMidYMid meet">
<metadata>
Created by potrace 1.14, written by Peter Selinger 2001-2017
</metadata>
<g transform="translate(0.000000,500.000000) scale(0.100000,-0.100000)"
fill="#000000" stroke="none">
<path d="M2856 3609 c-34 -27 -54 -92 -77 -254 -40 -277 -37 -509 15 -1443
l11 -212 -23 -21 c-14 -12 -22 -29 -20 -42 3 -19 19 -26 128 -55 102 -27 143
-33 223 -33 54 0 110 -5 125 -11 18 -7 114 -10 277 -9 230 2 255 0 308 -19 81
-29 157 -7 182 53 20 48 5 67 -53 67 -27 0 -87 13 -137 30 -85 29 -97 30 -255
30 l-167 0 -7 158 c-4 86 -16 324 -27 527 -11 204 -24 487 -29 630 -9 282 -22
362 -78 474 -31 63 -50 77 -117 86 -53 7 -129 25 -207 49 -44 14 -49 13 -72
-5z"/>
<path d="M1605 3603 c-129 -10 -145 -14 -162 -39 -22 -34 -31 -231 -38 -844
-3 -272 -8 -511 -10 -530 -8 -60 12 -533 24 -565 10 -28 18 -32 74 -43 34 -7
82 -17 107 -24 25 -6 63 -14 85 -18 22 -4 75 -19 117 -34 131 -45 145 -37 172
94 13 61 16 153 16 485 0 226 4 415 8 421 4 7 73 15 175 22 93 5 173 14 179
20 14 14 28 86 19 95 -5 5 -46 13 -92 18 -46 5 -108 16 -139 23 -30 8 -74 17
-97 21 l-41 6 -6 102 c-3 56 -8 179 -11 274 -5 154 -12 225 -31 289 -4 15 0
23 13 29 10 4 160 11 334 15 209 5 324 12 338 20 18 9 22 19 19 53 l-3 42 -60
8 c-33 4 -100 17 -150 29 -63 14 -147 23 -280 28 -186 8 -481 10 -560 3z"/>
</g>
</svg>
